<?xml version="1.0" encoding="UTF-8"?>
<svg id="Logo" xmlns="http://www.w3.org/2000/svg" viewBox="0 0 708.66 283.46">
  <defs>
    <style>
      .cls-1 {
        fill: #fff;
      }

      .cls-1, .cls-2 {
        stroke-width: 0px;
      }

      .cls-2 {
        fill: #002643;
      }
    </style>
  </defs>
  <path class="cls-1" d="m566.93,70.87H141.73c-39.14,0-70.87,31.73-70.87,70.87s31.73,70.87,70.87,70.87h425.2c39.14,0,70.87-31.73,70.87-70.87s-31.73-70.87-70.87-70.87Z"/>
  <g>
    <polygon class="cls-2" points="164.4 98.75 180.12 98.75 186.38 159.17 186.75 164.08 187.12 164.08 187.85 158.56 196.08 98.75 211.43 98.75 219.78 158.43 220.52 164.08 220.76 164.08 221.25 159.17 227.27 98.75 243.11 98.75 231.2 184.71 212.29 184.71 204.43 133.01 203.94 127.12 203.69 127.12 203.2 133.01 195.47 184.71 175.45 184.71 164.4 98.75"/>
    <rect class="cls-2" x="249.53" y="98.75" width="15.72" height="85.95"/>
    <polygon class="cls-2" points="328.05 184.71 328.05 112.62 316.35 112.62 316.35 98.75 354.33 98.75 354.33 112.62 342.65 112.62 342.65 184.71 328.05 184.71"/>
    <polygon class="cls-2" points="435.06 184.71 405.36 184.71 405.36 98.75 421.07 98.75 421.07 170.83 435.06 170.83 435.06 184.71"/>
    <polygon class="cls-2" points="529.98 184.71 546.32 184.71 524.84 132.24 545.95 98.75 528.88 98.75 509.23 131.69 509.23 98.75 493.51 98.75 493.51 184.71 509.23 184.71 509.23 154.28 515.07 146.36 529.98 184.71"/>
    <polygon class="cls-2" points="594.89 98.75 576.59 154.01 576.84 184.71 560.99 184.71 561.24 154.01 542.94 98.75 559.77 98.75 569.1 134 578.18 98.75 594.89 98.75"/>
    <polygon class="cls-2" points="361.04 184.71 361.04 98.75 396.25 98.75 396.25 112.63 375.86 112.63 375.86 132.03 394.51 132.03 394.51 145.78 375.86 145.78 375.86 170.83 396.3 170.83 396.3 184.71 361.04 184.71"/>
    <path class="cls-2" d="m158.76,151.86c-.94-2.99-2.3-5.7-4.45-8.01-2.05-2.2-5.22-4.65-9.52-7.37l-8.35-4.79c-2.05-1.06-3.51-2.71-4.28-4.39-.78-1.68-1.17-4.07-1.17-7.18,0-2.05.16-3.7.49-4.97.33-1.27.96-2.25,1.9-2.95.94-.69,2.31-1.04,4.11-1.04,2.46,0,4.17.72,5.16,2.15.89,1.29,1.66,3.61,1.81,6.95.1,1.73.26,4.11.28,5.91l15.1-2.11c0-6.22-.7-11.19-2.09-14.92-1.39-3.72-3.7-6.57-6.94-8.53-3.23-1.96-7.67-2.95-13.32-2.95s-9.53.99-12.76,2.66c-3.24,1.68-5.61,4.09-7.12,7.24-1.52,3.15-2.27,7.06-2.27,11.73,0,4.91.39,8.8,1.17,11.67.78,2.87,2.17,5.17,4.13,7.38,1.96,2.21,4.83,4.46,8.6,6.75l9.33,5.53c2.21,1.14,3.55,2.7,4.45,4.5.9,1.8,1.35,4.59,1.35,8.35,0,3.19-.47,5.46-1.41,6.82-.94,1.35-2.72,2.02-5.34,2.02s-4.4-.88-5.34-2.64c-.71-1.33-1.36-3.43-1.64-6.27-.04-.31-.07-.63-.08-.94-.1-1.78-.38-4.41-.3-6.29,0-.04.01-.08.01-.12l-15.49,2.14c0,6.38.71,11.54,2.15,15.47,1.43,3.93,3.81,6.94,7.12,9.02,3.32,2.09,7.71,3.13,13.2,3.13s9.46-.75,12.86-2.43c3.4-1.68,5.91-4.19,7.55-7.55,1.64-3.35,2.46-7.69,2.46-13.02,0-4.5-.42-7.97-1.36-10.96"/>
    <path class="cls-2" d="m484.05,151.86c-.94-2.99-2.3-5.7-4.45-8.01-2.05-2.2-5.22-4.65-9.52-7.37l-8.35-4.79c-2.05-1.06-3.51-2.71-4.28-4.39-.78-1.68-1.17-4.07-1.17-7.18,0-2.05.16-3.7.49-4.97.33-1.27.96-2.25,1.9-2.95.94-.69,2.31-1.04,4.11-1.04,2.46,0,4.17.72,5.16,2.15.89,1.29,1.66,3.61,1.81,6.95.1,1.73.26,4.11.28,5.91l15.1-2.11c0-6.22-.7-11.19-2.09-14.92-1.39-3.72-3.7-6.57-6.94-8.53-3.23-1.96-7.67-2.95-13.32-2.95s-9.53.99-12.76,2.66c-3.23,1.68-5.61,4.09-7.12,7.24-1.52,3.15-2.27,7.06-2.27,11.73,0,4.91.39,8.8,1.17,11.67.78,2.87,2.17,5.17,4.13,7.38,1.96,2.21,4.83,4.46,8.6,6.75l9.33,5.53c2.21,1.14,3.55,2.7,4.45,4.5.9,1.8,1.35,4.59,1.35,8.35,0,3.19-.47,5.46-1.41,6.82-.94,1.35-2.72,2.02-5.34,2.02s-4.4-.88-5.34-2.64c-.71-1.33-1.36-3.43-1.64-6.27-.04-.31-.07-.63-.08-.94-.1-1.78-.38-4.41-.3-6.29,0-.04.01-.08.01-.12l-15.49,2.14c0,6.38.71,11.54,2.15,15.47,1.43,3.93,3.81,6.94,7.12,9.02,3.32,2.09,7.71,3.13,13.2,3.13s9.46-.75,12.86-2.43c3.4-1.68,5.91-4.19,7.55-7.55,1.64-3.35,2.46-7.69,2.46-13.02,0-4.5-.42-7.97-1.36-10.96"/>
    <polygon class="cls-2" points="276.12 184.71 276.12 98.75 309.64 98.75 309.64 112.63 290.94 112.63 290.94 132.03 309.69 132.03 309.69 145.78 290.94 145.78 290.94 170.83 309.69 170.83 309.69 184.71 276.12 184.71"/>
  </g>
</svg>